<svg xmlns="http://www.w3.org/2000/svg" viewBox="0 0 128 128" width="128" height="128"><defs><linearGradient id="b" x1="1" y1="0" x2="0" y2="1"><stop offset="0" stop-color="#fffaf5"/><stop offset="1" stop-color="#ddccbf"/></linearGradient></defs><path d="M24 40c-14 20-17 48-10 76 10-13 15-34 16-58z" fill="#39c5bb"/><path d="M104 40c14 20 17 48 10 76-10-13-15-34-16-58z" fill="#39c5bb"/><rect x="12" y="30" width="104" height="80" rx="34" fill="url(#b)"/><rect x="38" y="52" width="11" height="18" rx="5.5" fill="#1a1412"/><rect x="79" y="52" width="11" height="18" rx="5.5" fill="#1a1412"/><ellipse cx="34" cy="78" rx="8" ry="4.5" fill="#ff7896" opacity=".5"/><ellipse cx="94" cy="78" rx="8" ry="4.5" fill="#ff7896" opacity=".5"/><rect x="14" y="30" width="18" height="12" rx="3" fill="#1b1f25" transform="rotate(-28 23 36)"/><rect x="96" y="30" width="18" height="12" rx="3" fill="#1b1f25" transform="rotate(28 105 36)"/><rect x="14" y="34.5" width="18" height="3" fill="#e12885" transform="rotate(-28 23 36)"/><rect x="96" y="34.5" width="18" height="3" fill="#e12885" transform="rotate(28 105 36)"/></svg>
